# xmcd CD database file
#
# Track frame offsets:
#	150
#	47447
#	84704
#	115248
#	154061
#	183818
#	221131
#	249256
#	273416
#	313391
#
# Disc length: 4772 seconds
#
# Revision: 0
# Processed by: cddbd v1.5.2PL0 Copyright (c) Steve Scherf et al.
# Submitted via: CDex 1.77
#
DISCID=8712a20a
DTITLE=Coleman Hawkins (with Eddie "Lockjaw" Davis) - Night Hawk and Very Saxy
DYEAR=1959
DGENRE=Jazz
TTITLE0=Night Hawk
TTITLE1=There Is No Greater Love
TTITLE2=In a Mellow Tone
TTITLE3=Don't Take Your Love From Me
TTITLE4=Pedalin'
TTITLE5=Very Saxy
TTITLE6=Lester Leaps In
TTITLE7=Fourmost
TTITLE8=Foot Pattin'
TTITLE9=Light and Lovely
EXTD=YEAR: 1959
EXTT0=
EXTT1=
EXTT2=
EXTT3=
EXTT4=
EXTT5=
EXTT6=
EXTT7=
EXTT8=
EXTT9=
PLAYORDER=
